<svg width="32" height="32" viewBox="0 0 32 32" fill="none" xmlns="http://www.w3.org/2000/svg">
<path d="M11.7335 15.9999C13.7968 15.9999 15.4668 14.3299 15.4668 12.2665C15.4668 10.2032 13.7968 8.5332 11.7335 8.5332C9.67016 8.5332 8.00016 10.2032 8.00016 12.2665C8.00016 14.3299 9.67016 15.9999 11.7335 15.9999ZM14.2935 17.0665H14.0168C13.3235 17.3999 12.5535 17.5999 11.7335 17.5999C10.9135 17.5999 10.1468 17.3999 9.45016 17.0665H9.1735C7.0535 17.0665 5.3335 18.7865 5.3335 20.9065V21.8665C5.3335 22.7499 6.05016 23.4665 6.9335 23.4665H16.5335C17.4168 23.4665 18.1335 22.7499 18.1335 21.8665V20.9065C18.1335 18.7865 16.4135 17.0665 14.2935 17.0665ZM21.3335 15.9999C23.1002 15.9999 24.5335 14.5665 24.5335 12.7999C24.5335 11.0332 23.1002 9.59987 21.3335 9.59987C19.5668 9.59987 18.1335 11.0332 18.1335 12.7999C18.1335 14.5665 19.5668 15.9999 21.3335 15.9999ZM22.9335 17.0665H22.8068C22.3435 17.2265 21.8535 17.3332 21.3335 17.3332C20.8135 17.3332 20.3235 17.2265 19.8602 17.0665H19.7335C19.0535 17.0665 18.4268 17.2632 17.8768 17.5799C18.6902 18.4565 19.2002 19.6199 19.2002 20.9065V22.1865C19.2002 22.2599 19.1835 22.3299 19.1802 22.3999H25.0668C25.9502 22.3999 26.6668 21.6832 26.6668 20.7999C26.6668 18.7365 24.9968 17.0665 22.9335 17.0665Z" fill="#515150"/>
</svg>
