<svg width="32" height="32" viewBox="0 0 32 32" fill="none" xmlns="http://www.w3.org/2000/svg">
<path d="M16.0002 7.7041C10.1091 7.7041 5.3335 12.4797 5.3335 18.3708C5.3335 20.3263 5.86127 22.1582 6.78016 23.7337C6.98794 24.09 7.38387 24.2967 7.79646 24.2967H24.2039C24.6165 24.2967 25.0124 24.09 25.2202 23.7337C26.139 22.1582 26.6668 20.3263 26.6668 18.3708C26.6668 12.4797 21.8913 7.7041 16.0002 7.7041ZM16.0002 10.0745C16.545 10.0745 16.9846 10.4497 17.1231 10.9504C17.082 11.0341 17.0253 11.1071 16.9953 11.1974L16.6539 12.2223C16.4639 12.3515 16.2476 12.4448 16.0005 12.4448C15.3461 12.4448 14.8153 11.9141 14.8153 11.2597C14.8153 10.6052 15.3457 10.0745 16.0002 10.0745ZM8.88905 20.7411C8.23461 20.7411 7.70387 20.2104 7.70387 19.556C7.70387 18.9015 8.23461 18.3708 8.88905 18.3708C9.5435 18.3708 10.0742 18.9015 10.0742 19.556C10.0742 20.2104 9.5435 20.7411 8.88905 20.7411ZM10.6668 14.8152C10.0124 14.8152 9.48164 14.2845 9.48164 13.63C9.48164 12.9756 10.0124 12.4448 10.6668 12.4448C11.3213 12.4448 11.852 12.9756 11.852 13.63C11.852 14.2845 11.3213 14.8152 10.6668 14.8152ZM19.8065 12.1334L17.535 18.9482C18.042 19.383 18.3705 20.0204 18.3705 20.7411C18.3705 21.1752 18.2453 21.5763 18.0416 21.9263H13.9587C13.755 21.5763 13.6298 21.1752 13.6298 20.7411C13.6298 19.4841 14.6113 18.466 15.8483 18.386L18.1202 11.5708C18.2746 11.1056 18.7768 10.8504 19.2446 11.0089C19.7102 11.1641 19.9613 11.6678 19.8065 12.1334ZM20.3494 14.2519L20.9242 12.5278C21.0528 12.48 21.1883 12.4452 21.3335 12.4452C21.9879 12.4452 22.5187 12.976 22.5187 13.6304C22.5187 14.2848 21.9879 14.8156 21.3335 14.8156C20.912 14.8152 20.5598 14.583 20.3494 14.2519ZM23.1113 20.7411C22.4568 20.7411 21.9261 20.2104 21.9261 19.556C21.9261 18.9015 22.4568 18.3708 23.1113 18.3708C23.7657 18.3708 24.2965 18.9015 24.2965 19.556C24.2965 20.2104 23.7657 20.7411 23.1113 20.7411Z" fill="#515150"/>
</svg>
