<svg width="32" height="32" viewBox="0 0 32 32" fill="none" xmlns="http://www.w3.org/2000/svg">
<path d="M26.6668 17.7776V21.3331C26.6668 22.315 25.8709 23.1109 24.889 23.1109H7.11127C6.12942 23.1109 5.3335 22.315 5.3335 21.3331V17.7776C5.3335 16.7957 6.12942 15.9998 7.11127 15.9998H24.889C25.8709 15.9998 26.6668 16.7957 26.6668 17.7776ZM24.889 14.8146C25.2804 14.8143 25.6679 14.8919 26.0289 15.0429L22.4539 9.6803C22.2915 9.43679 22.0715 9.23713 21.8135 9.09903C21.5555 8.96093 21.2673 8.88868 20.9746 8.88867H11.0257C10.733 8.88867 10.4449 8.96093 10.1868 9.09903C9.92879 9.23712 9.70884 9.43679 9.5465 9.6803L5.97138 15.0429C6.33241 14.8919 6.71992 14.8143 7.11127 14.8146H24.889ZM23.1113 18.3702C22.4567 18.3702 21.9261 18.9008 21.9261 19.5553C21.9261 20.2099 22.4567 20.7405 23.1113 20.7405C23.7658 20.7405 24.2965 20.2099 24.2965 19.5553C24.2965 18.9008 23.7658 18.3702 23.1113 18.3702ZM19.5557 18.3702C18.9012 18.3702 18.3705 18.9008 18.3705 19.5553C18.3705 20.2099 18.9012 20.7405 19.5557 20.7405C20.2103 20.7405 20.7409 20.2099 20.7409 19.5553C20.7409 18.9008 20.2103 18.3702 19.5557 18.3702Z" fill="#515150"/>
</svg>
