<svg width="32" height="32" viewBox="0 0 32 32" fill="none" xmlns="http://www.w3.org/2000/svg">
<path d="M12.8331 23.9992H9.3333C7.12507 23.9992 5.3335 22.2076 5.3335 19.9994V11.9998C5.3335 9.79158 7.12507 8 9.3333 8H12.8331C13.1081 8 13.3331 8.22499 13.3331 8.49998V10.1666C13.3331 10.4415 13.1081 10.6665 12.8331 10.6665H9.3333C8.59584 10.6665 8.00003 11.2623 8.00003 11.9998V19.9994C8.00003 20.7369 8.59584 21.3327 9.3333 21.3327H12.8331C13.1081 21.3327 13.3331 21.5577 13.3331 21.8327V23.4992C13.3331 23.7742 13.1081 23.9992 12.8331 23.9992ZM17.7454 11.3707L20.9786 14.333H12.9998C12.4456 14.333 11.9998 14.7788 11.9998 15.333V16.6662C11.9998 17.2204 12.4456 17.6662 12.9998 17.6662H20.9786L17.7454 20.6285C17.3246 21.0119 17.3121 21.6702 17.7121 22.0743L18.6245 22.9868C19.012 23.3742 19.6453 23.3784 20.0369 22.9909L26.37 16.7079C26.7658 16.3163 26.7658 15.6788 26.37 15.2871L20.0411 9.01245C19.6495 8.62497 19.0203 8.62497 18.6287 9.01662L17.7162 9.92907C17.3121 10.3291 17.3287 10.9874 17.7454 11.3707Z" fill="#515150"/>
</svg>
