<svg width="32" height="32" viewBox="0 0 32 32" fill="none" xmlns="http://www.w3.org/2000/svg">
<path d="M26.6049 11.4292C26.624 11.4054 26.6287 11.3959 26.6478 11.3721L23.9668 6.37684C23.7573 5.75303 23.1764 5.33398 22.5192 5.33398H17.524L19.0478 11.4292H26.6049ZM12.9525 11.4292L14.4764 5.33398H9.48111C8.82397 5.33398 8.24302 5.75303 8.0335 6.37684L5.35254 11.3721C5.37159 11.3959 5.37635 11.4054 5.3954 11.4292H12.9525ZM19.0478 12.953V16.7626C19.0478 17.1816 18.7049 17.5245 18.2859 17.5245H13.7144C13.2954 17.5245 12.9525 17.1816 12.9525 16.7626V12.953H5.3335V25.1435C5.3335 25.9864 6.01445 26.6673 6.85731 26.6673H25.143C25.9859 26.6673 26.6668 25.9864 26.6668 25.1435V12.953H19.0478Z" fill="#515150"/>
</svg>
