<svg width="32" height="32" viewBox="0 0 32 32" fill="none" xmlns="http://www.w3.org/2000/svg">
<path d="M5.3335 15.8389V7.33399C5.3335 6.2294 6.22891 5.33398 7.3335 5.33398H15.8384C16.3688 5.33399 16.8776 5.5447 17.2526 5.91978L26.081 14.7482C26.8621 15.5292 26.8621 16.7956 26.081 17.5766L17.5761 26.0815C16.7951 26.8626 15.5287 26.8626 14.7477 26.0815L5.91929 17.2531C5.54421 16.878 5.3335 16.3693 5.3335 15.8389V15.8389ZM10.0002 8.00065C8.89558 8.00065 8.00016 8.89607 8.00016 10.0007C8.00016 11.1052 8.89558 12.0007 10.0002 12.0007C11.1047 12.0007 12.0002 11.1052 12.0002 10.0007C12.0002 8.89607 11.1047 8.00065 10.0002 8.00065Z" fill="#515150"/>
</svg>
