<svg width="32" height="32" viewBox="0 0 32 32" fill="none" xmlns="http://www.w3.org/2000/svg">
<path d="M25.9505 18.5641L24.1183 17.506C24.3032 16.5082 24.3032 15.4845 24.1183 14.4867L25.9505 13.4286C26.1613 13.3082 26.2559 13.0587 26.1871 12.8265C25.7097 11.2953 24.8968 9.91035 23.8344 8.75767C23.671 8.58132 23.4043 8.53831 23.1979 8.65874L21.3656 9.7168C20.5957 9.05444 19.7097 8.54261 18.7506 8.20713V6.09531C18.7506 5.85445 18.5828 5.6437 18.3463 5.59209C16.7678 5.2394 15.1506 5.25661 13.6495 5.59209C13.413 5.6437 13.2452 5.85445 13.2452 6.09531V8.21143C12.2904 8.55122 11.4044 9.06304 10.6302 9.7211L8.80222 8.66304C8.59146 8.54261 8.3291 8.58132 8.16566 8.76197C7.1033 9.91035 6.2904 11.2953 5.81298 12.8308C5.73986 13.063 5.83879 13.3125 6.04954 13.4329L7.88179 14.491C7.69685 15.4888 7.69685 16.5125 7.88179 17.5103L6.04954 18.5684C5.83879 18.6888 5.74416 18.9383 5.81298 19.1705C6.2904 20.7017 7.1033 22.0866 8.16566 23.2393C8.3291 23.4157 8.59577 23.4587 8.80222 23.3383L10.6345 22.2802C11.4044 22.9426 12.2904 23.4544 13.2495 23.7899V25.906C13.2495 26.1468 13.4173 26.3576 13.6538 26.4092C15.2323 26.7619 16.8495 26.7447 18.3506 26.4092C18.5871 26.3576 18.7549 26.1468 18.7549 25.906V23.7899C19.7097 23.4501 20.5957 22.9383 21.3699 22.2802L23.2022 23.3383C23.4129 23.4587 23.6753 23.42 23.8387 23.2393C24.9011 22.0909 25.714 20.706 26.1914 19.1705C26.2559 18.934 26.1613 18.6845 25.9505 18.5641ZM15.9979 19.4372C14.1011 19.4372 12.557 17.8931 12.557 15.9963C12.557 14.0996 14.1011 12.5555 15.9979 12.5555C17.8947 12.5555 19.4387 14.0996 19.4387 15.9963C19.4387 17.8931 17.8947 19.4372 15.9979 19.4372Z" fill="#515150"/>
</svg>
