<svg width="10" height="14" viewBox="0 0 10 14" fill="none" xmlns="http://www.w3.org/2000/svg">
<path d="M8.99903 7.99729H1.00097C0.11368 7.99729 -0.336212 9.07515 0.294886 9.70313L4.29392 13.7022C4.68445 14.0927 5.31867 14.0927 5.7092 13.7022L9.70824 9.70313C10.3331 9.07515 9.88632 7.99729 8.99903 7.99729ZM5 12.9961L1.00097 8.99705H8.99903L5 12.9961ZM1.00097 5.99777H8.99903C9.88632 5.99777 10.3362 4.91991 9.70511 4.29193L5.70608 0.292898C5.31555 -0.0976327 4.68133 -0.0976327 4.2908 0.292898L0.291762 4.29193C-0.333087 4.91991 0.11368 5.99777 1.00097 5.99777ZM5 0.998977L8.99903 4.99801H1.00097L5 0.998977Z" fill="#212325"/>
</svg>
