<svg width="32" height="32" viewBox="0 0 32 32" fill="none" xmlns="http://www.w3.org/2000/svg">
<path d="M17.3333 11.0007V5.33398H9C8.44583 5.33398 8 5.77982 8 6.33398V25.6673C8 26.2215 8.44583 26.6673 9 26.6673H23C23.5542 26.6673 24 26.2215 24 25.6673V12.0007H18.3333C17.7833 12.0007 17.3333 11.5507 17.3333 11.0007ZM20 20.834C20 21.109 19.775 21.334 19.5 21.334H12.5C12.225 21.334 12 21.109 12 20.834V20.5007C12 20.2256 12.225 20.0007 12.5 20.0007H19.5C19.775 20.0007 20 20.2256 20 20.5007V20.834ZM20 18.1673C20 18.4423 19.775 18.6673 19.5 18.6673H12.5C12.225 18.6673 12 18.4423 12 18.1673V17.834C12 17.559 12.225 17.334 12.5 17.334H19.5C19.775 17.334 20 17.559 20 17.834V18.1673ZM20 15.1673V15.5007C20 15.7757 19.775 16.0007 19.5 16.0007H12.5C12.225 16.0007 12 15.7757 12 15.5007V15.1673C12 14.8923 12.225 14.6673 12.5 14.6673H19.5C19.775 14.6673 20 14.8923 20 15.1673ZM24 10.4132V10.6673H18.6667V5.33398H18.9208C19.1875 5.33398 19.4417 5.43815 19.6292 5.62565L23.7083 9.70898C23.8958 9.89648 24 10.1507 24 10.4132Z" fill="#515150"/>
</svg>
