<svg width="14" height="16" viewBox="0 0 14 16" fill="none" xmlns="http://www.w3.org/2000/svg">
<path d="M13.75 2H10.5L9.45 0.6C9.31028 0.413706 9.1291 0.262501 8.92082 0.158359C8.71254 0.0542176 8.48287 0 8.25 0L5.75 0C5.51713 0 5.28746 0.0542176 5.07918 0.158359C4.8709 0.262501 4.68972 0.413706 4.55 0.6L3.5 2H0.25C0.183696 2 0.120107 2.02634 0.0732233 2.07322C0.0263392 2.12011 0 2.1837 0 2.25L0 2.75C0 2.8163 0.0263392 2.87989 0.0732233 2.92678C0.120107 2.97366 0.183696 3 0.25 3H0.840625L1.87812 14.6344C1.91168 15.0074 2.08356 15.3544 2.35998 15.6071C2.63639 15.8598 2.99735 15.9999 3.37188 16H10.6281C11.0027 15.9999 11.3636 15.8598 11.64 15.6071C11.9164 15.3544 12.0883 15.0074 12.1219 14.6344L13.1594 3H13.75C13.8163 3 13.8799 2.97366 13.9268 2.92678C13.9737 2.87989 14 2.8163 14 2.75V2.25C14 2.1837 13.9737 2.12011 13.9268 2.07322C13.8799 2.02634 13.8163 2 13.75 2ZM5.35 1.2C5.39674 1.13808 5.45717 1.08781 5.52656 1.05311C5.59595 1.01842 5.67242 1.00024 5.75 1H8.25C8.32758 1.00024 8.40405 1.01842 8.47344 1.05311C8.54283 1.08781 8.60326 1.13808 8.65 1.2L9.25 2H4.75L5.35 1.2ZM11.125 14.5437C11.1147 14.6683 11.0579 14.7845 10.9658 14.869C10.8737 14.9536 10.7531 15.0003 10.6281 15H3.37188C3.24686 15.0003 3.12631 14.9536 3.03422 14.869C2.94214 14.7845 2.88529 14.6683 2.875 14.5437L1.84375 3H12.1562L11.125 14.5437Z" fill="#515150"/>
</svg>
