<svg width="4" height="14" viewBox="0 0 4 14" fill="none" xmlns="http://www.w3.org/2000/svg">
<path d="M2.00019 5.59584C2.7765 5.59584 3.4037 6.22303 3.4037 6.99935C3.4037 7.77566 2.7765 8.40286 2.00019 8.40286C1.22387 8.40286 0.59668 7.77566 0.59668 6.99935C0.59668 6.22303 1.22387 5.59584 2.00019 5.59584ZM0.59668 1.73619C0.59668 2.51251 1.22387 3.1397 2.00019 3.1397C2.7765 3.1397 3.4037 2.51251 3.4037 1.73619C3.4037 0.959875 2.7765 0.332683 2.00019 0.332683C1.22387 0.332683 0.59668 0.959875 0.59668 1.73619ZM0.59668 12.2625C0.59668 13.0388 1.22387 13.666 2.00019 13.666C2.7765 13.666 3.4037 13.0388 3.4037 12.2625C3.4037 11.4862 2.7765 10.859 2.00019 10.859C1.22387 10.859 0.59668 11.4862 0.59668 12.2625Z" fill="#515150"/>
</svg>
