<svg width="16" height="12" viewBox="0 0 16 12" fill="none" xmlns="http://www.w3.org/2000/svg">
<path d="M15.9033 5.5938C14.397 2.65463 11.4147 0.666016 8 0.666016C4.58527 0.666016 1.60221 2.65602 0.0966517 5.59408C0.0331076 5.71978 0 5.85865 0 5.9995C0 6.14034 0.0331076 6.27922 0.0966517 6.40492C1.60304 9.34409 4.58527 11.3327 8 11.3327C11.4147 11.3327 14.3978 9.3427 15.9033 6.40464C15.9669 6.27894 16 6.14007 16 5.99922C16 5.85837 15.9669 5.7195 15.9033 5.5938ZM8 9.99937C7.20887 9.99937 6.43551 9.76477 5.77771 9.32524C5.11992 8.88572 4.60723 8.261 4.30447 7.5301C4.00172 6.79919 3.92251 5.99492 4.07685 5.219C4.23119 4.44307 4.61216 3.73034 5.17157 3.17093C5.73098 2.61152 6.44371 2.23055 7.21964 2.07621C7.99556 1.92187 8.79983 2.00108 9.53074 2.30383C10.2616 2.60659 10.8864 3.11928 11.3259 3.77707C11.7654 4.43487 12 5.20823 12 5.99936C12.0003 6.52472 11.897 7.04498 11.696 7.5304C11.4951 8.01582 11.2005 8.45688 10.829 8.82836C10.4575 9.19985 10.0165 9.49448 9.53104 9.69541C9.04562 9.89633 8.52536 9.99962 8 9.99937ZM8 3.33269C7.76198 3.33601 7.5255 3.37143 7.29694 3.43797C7.48534 3.69399 7.57574 4.00905 7.55177 4.32601C7.52779 4.64297 7.39101 4.94084 7.16625 5.16561C6.94148 5.39037 6.64361 5.52715 6.32665 5.55113C6.00969 5.5751 5.69463 5.4847 5.43861 5.2963C5.29282 5.83341 5.31914 6.40271 5.51385 6.92408C5.70857 7.44545 6.06188 7.89263 6.52406 8.20268C6.98623 8.51274 7.534 8.67005 8.09027 8.65247C8.64653 8.6349 9.18328 8.44333 9.62497 8.10473C10.0667 7.76612 10.391 7.29753 10.5525 6.76491C10.7139 6.23229 10.7042 5.66246 10.5248 5.13563C10.3454 4.60879 10.0053 4.15148 9.5524 3.82805C9.09948 3.50463 8.55654 3.33138 8 3.33269Z" fill="#515150"/>
</svg>
