<svg width="33" height="30" viewBox="0 0 33 30" fill="none" xmlns="http://www.w3.org/2000/svg">
<path d="M32.1209 13.4713C27.7822 18.3711 22.1324 19.5155 21.8935 19.56C14.4049 21.0099 13.3772 19.9766 8.72181 21.6432C8.13294 21.8543 7.51075 21.4432 7.51075 20.821V7.02711C7.51075 6.52713 7.91629 6.11603 8.41627 6.13825C10.8162 6.24936 13.7105 6.87156 17.0382 8.49372C24.849 12.2991 29.4655 11.988 31.0876 11.6714C32.0876 11.4603 32.8265 12.6769 32.1209 13.4713ZM3.5109 0.777344C1.79429 0.777344 0.399902 2.17174 0.399902 3.88834C0.399902 5.12718 1.13321 6.18825 2.17761 6.68823V28.7763C2.17761 29.0207 2.37761 29.2207 2.62204 29.2207H4.39975C4.64419 29.2207 4.84418 29.0207 4.84418 28.7763V6.68823C5.88858 6.18825 6.62189 5.12718 6.62189 3.88834C6.62189 2.17174 5.2275 0.777344 3.5109 0.777344V0.777344Z" fill="white"/>
</svg>
