<svg width="32" height="32" viewBox="0 0 32 32" fill="none" xmlns="http://www.w3.org/2000/svg">
<path d="M12.7682 0.314695C6.55559 1.52721 1.54926 6.52104 0.324242 12.7149C-1.98829 24.4026 8.55562 33.1152 16.4995 31.8839C19.0745 31.4839 20.3371 28.4714 19.1558 26.1526C17.712 23.3151 19.7745 20.0025 22.9621 20.0025H27.9434C30.181 20.0025 31.9935 18.1525 31.9997 15.9212C31.9685 6.07104 23.0059 -1.67909 12.7682 0.314695ZM5.99933 20.0025C4.89306 20.0025 3.9993 19.1087 3.9993 18.0025C3.9993 16.8962 4.89306 16.0024 5.99933 16.0024C7.1056 16.0024 7.99936 16.8962 7.99936 18.0025C7.99936 19.1087 7.1056 20.0025 5.99933 20.0025ZM7.99936 12.0024C6.8931 12.0024 5.99933 11.1086 5.99933 10.0023C5.99933 8.89608 6.8931 8.00232 7.99936 8.00232C9.10563 8.00232 9.9994 8.89608 9.9994 10.0023C9.9994 11.1086 9.10563 12.0024 7.99936 12.0024ZM15.9995 8.00232C14.8932 8.00232 13.9995 7.10855 13.9995 6.00229C13.9995 4.89602 14.8932 4.00225 15.9995 4.00225C17.1058 4.00225 17.9995 4.89602 17.9995 6.00229C17.9995 7.10855 17.1058 8.00232 15.9995 8.00232ZM23.9996 12.0024C22.8934 12.0024 21.9996 11.1086 21.9996 10.0023C21.9996 8.89608 22.8934 8.00232 23.9996 8.00232C25.1059 8.00232 25.9996 8.89608 25.9996 10.0023C25.9996 11.1086 25.1059 12.0024 23.9996 12.0024Z" fill="white"/>
</svg>
