<svg width="33" height="32" viewBox="0 0 33 32" fill="none" xmlns="http://www.w3.org/2000/svg">
<path d="M20.0616 16L31.9488 4.11214C32.2838 3.77714 32.2838 3.23429 31.9488 2.9C29.6059 0.557143 25.8066 0.557143 23.4638 2.9L15.2131 11.1514L13.4373 9.37571C13.7452 8.59571 13.9145 7.74643 13.9145 6.85714C13.9145 3.07 10.8445 0 7.05734 0C3.2702 0 0.200195 3.07 0.200195 6.85714C0.200195 10.6443 3.2702 13.7143 7.05734 13.7143C7.38162 13.7143 7.69948 13.6914 8.01162 13.6479L10.3638 16L8.01162 18.3521C7.69948 18.3086 7.38091 18.2857 7.05734 18.2857C3.2702 18.2857 0.200195 21.3557 0.200195 25.1429C0.200195 28.93 3.2702 32 7.05734 32C10.8445 32 13.9145 28.93 13.9145 25.1429C13.9145 24.2536 13.7452 23.4043 13.4373 22.6243L15.2131 20.8486L23.4638 29.1C25.8066 31.4429 29.6059 31.4429 31.9488 29.1C32.2838 28.7657 32.2838 28.2229 31.9488 27.8879L20.0616 16ZM7.05734 9.14286C5.79734 9.14286 4.77162 8.11714 4.77162 6.85714C4.77162 5.59714 5.79734 4.57143 7.05734 4.57143C8.31734 4.57143 9.34305 5.59714 9.34305 6.85714C9.34305 8.11714 8.31734 9.14286 7.05734 9.14286ZM7.05734 27.4286C5.79734 27.4286 4.77162 26.4029 4.77162 25.1429C4.77162 23.8829 5.79734 22.8571 7.05734 22.8571C8.31734 22.8571 9.34305 23.8829 9.34305 25.1429C9.34305 26.4029 8.31734 27.4286 7.05734 27.4286Z" fill="white"/>
</svg>
