<svg width="33" height="32" viewBox="0 0 33 32" fill="none" xmlns="http://www.w3.org/2000/svg">
<path d="M27.7663 10.4819L22.1313 4.835C21.7589 4.46161 21.2534 4.25141 20.726 4.25059C20.1986 4.24977 19.6925 4.4584 19.3188 4.83063L19.3145 4.835L14.6001 9.555V26.5L27.7663 13.3062C28.1402 12.9313 28.3501 12.4235 28.3501 11.8941C28.3501 11.3646 28.1402 10.8568 27.7663 10.4819ZM30.6001 20H23.9182L12.2676 31.6569C12.1388 31.7863 11.9863 31.8806 11.8501 32H30.6001C31.1305 32 31.6392 31.7893 32.0143 31.4142C32.3894 31.0391 32.6001 30.5304 32.6001 30V22C32.6001 21.4696 32.3894 20.9609 32.0143 20.5858C31.6392 20.2107 31.1305 20 30.6001 20ZM12.6001 2C12.6001 1.46957 12.3894 0.960859 12.0143 0.585786C11.6392 0.210714 11.1305 0 10.6001 0L2.6001 0C2.06966 0 1.56096 0.210714 1.18588 0.585786C0.810811 0.960859 0.600098 1.46957 0.600098 2L0.600098 26C0.600098 27.5913 1.23224 29.1174 2.35746 30.2426C3.48268 31.3679 5.0088 32 6.6001 32C8.1914 32 9.71752 31.3679 10.8427 30.2426C11.968 29.1174 12.6001 27.5913 12.6001 26V2ZM6.6001 27.5C6.30343 27.5 6.01342 27.412 5.76674 27.2472C5.52007 27.0824 5.32781 26.8481 5.21428 26.574C5.10075 26.2999 5.07104 25.9983 5.12892 25.7074C5.1868 25.4164 5.32966 25.1491 5.53944 24.9393C5.74922 24.7296 6.01649 24.5867 6.30746 24.5288C6.59843 24.4709 6.90003 24.5007 7.17412 24.6142C7.44821 24.7277 7.68248 24.92 7.8473 25.1666C8.01212 25.4133 8.1001 25.7033 8.1001 26C8.1001 26.3978 7.94206 26.7794 7.66076 27.0607C7.37945 27.342 6.99792 27.5 6.6001 27.5ZM8.6001 16H4.6001V12H8.6001V16ZM8.6001 8H4.6001V4H8.6001V8Z" fill="white"/>
</svg>
