<svg width="33" height="26" viewBox="0 0 33 26" fill="none" xmlns="http://www.w3.org/2000/svg">
<path d="M31.9998 17.7992H31.1998V12.3942C31.1998 11.7592 30.9448 11.1492 30.4948 10.6992L25.4998 5.70422C25.0498 5.25422 24.4398 4.99922 23.8048 4.99922H21.5998V2.59922C21.5998 1.27422 20.5248 0.199219 19.1998 0.199219H6.3998C5.0748 0.199219 3.9998 1.27422 3.9998 2.59922V4.99922H1.1998C0.979805 4.99922 0.799805 5.17922 0.799805 5.39922V6.19922C0.799805 6.41922 0.979805 6.59922 1.1998 6.59922H14.7998C15.0198 6.59922 15.1998 6.77922 15.1998 6.99922V7.79922C15.1998 8.01922 15.0198 8.19922 14.7998 8.19922H2.7998C2.5798 8.19922 2.3998 8.37922 2.3998 8.59922V9.39922C2.3998 9.61922 2.5798 9.79922 2.7998 9.79922H13.1998C13.4198 9.79922 13.5998 9.97922 13.5998 10.1992V10.9992C13.5998 11.2192 13.4198 11.3992 13.1998 11.3992H1.1998C0.979805 11.3992 0.799805 11.5792 0.799805 11.7992V12.5992C0.799805 12.8192 0.979805 12.9992 1.1998 12.9992H11.5998C11.8198 12.9992 11.9998 13.1792 11.9998 13.3992V14.1992C11.9998 14.4192 11.8198 14.5992 11.5998 14.5992H3.9998V20.9992C3.9998 23.6492 6.1498 25.7992 8.7998 25.7992C11.4498 25.7992 13.5998 23.6492 13.5998 20.9992H19.9998C19.9998 23.6492 22.1498 25.7992 24.7998 25.7992C27.4498 25.7992 29.5998 23.6492 29.5998 20.9992H31.9998C32.4398 20.9992 32.7998 20.6392 32.7998 20.1992V18.5992C32.7998 18.1592 32.4398 17.7992 31.9998 17.7992ZM8.7998 23.3992C7.4748 23.3992 6.3998 22.3242 6.3998 20.9992C6.3998 19.6742 7.4748 18.5992 8.7998 18.5992C10.1248 18.5992 11.1998 19.6742 11.1998 20.9992C11.1998 22.3242 10.1248 23.3992 8.7998 23.3992ZM24.7998 23.3992C23.4748 23.3992 22.3998 22.3242 22.3998 20.9992C22.3998 19.6742 23.4748 18.5992 24.7998 18.5992C26.1248 18.5992 27.1998 19.6742 27.1998 20.9992C27.1998 22.3242 26.1248 23.3992 24.7998 23.3992ZM28.7998 12.9992H21.5998V7.39922H23.8048L28.7998 12.3942V12.9992Z" fill="white"/>
</svg>
