<svg width="200" height="30" viewBox="0 0 200 30" fill="none" xmlns="http://www.w3.org/2000/svg">
<path d="M13.1335 29.7838C10.757 29.8239 8.40988 29.327 6.32774 28.3429C4.37926 27.3977 2.77196 26.0099 1.68235 24.3321C0.52979 22.5298 -0.0493194 20.4987 0.00329022 18.4433C-0.0485967 16.3894 0.530498 14.3601 1.68235 12.5592C2.77196 10.8814 4.37926 9.49368 6.32774 8.5485C8.40988 7.56437 10.757 7.06743 13.1335 7.10751C16.0473 7.02592 18.9087 7.7853 21.2602 9.26418C23.4776 10.7298 24.9799 12.8513 25.4746 15.2155H18.6185C18.3154 14.2149 17.6045 13.3407 16.6148 12.7514C15.5745 12.1456 14.34 11.8334 13.0832 11.858C12.2196 11.8487 11.3639 11.9998 10.5747 12.3007C9.78549 12.6017 9.08135 13.0454 8.51051 13.6016C7.25681 14.764 6.62997 16.3762 6.62997 18.4384C6.62997 20.5007 7.25681 22.1146 8.51051 23.2802C9.08135 23.8363 9.78549 24.2801 10.5747 24.581C11.3639 24.882 12.2196 25.033 13.0832 25.0238C14.3366 25.0478 15.5688 24.7428 16.6148 24.1496C17.6178 23.5632 18.3317 22.6783 18.6185 21.6663H25.4746C24.9423 23.9995 23.4456 26.0891 21.2602 27.5503C18.9311 29.0745 16.0611 29.8633 13.1335 29.7838Z" fill="#212325"/>
<path d="M65.067 29.7839C63.0505 29.8194 61.0469 29.5007 59.1792 28.8472C57.5907 28.2918 56.1926 27.3993 55.1158 26.2535C54.0955 25.1465 53.461 23.8143 53.2856 22.4108H59.8396C60.0578 23.2798 60.6442 24.0484 61.4851 24.5675C62.4936 25.1964 63.7209 25.5131 64.9663 25.4657C66.3879 25.4657 67.4289 25.2176 68.0894 24.7212C68.3918 24.5192 68.6378 24.2616 68.8092 23.9674C68.9806 23.6732 69.0731 23.3498 69.08 23.0209C69.115 22.6157 68.9952 22.2117 68.7387 21.8702C68.4821 21.5287 68.1029 21.2683 67.6584 21.1284C66.3708 20.7147 65.0454 20.3933 63.6958 20.1677C62.6138 19.966 61.513 19.7194 60.3937 19.428C59.3259 19.1541 58.2957 18.782 57.321 18.3184C56.4312 17.8894 55.6659 17.2934 55.0822 16.5749C54.4868 15.7925 54.1859 14.8719 54.2203 13.9378C54.2021 13.0087 54.4304 12.0882 54.8881 11.246C55.3458 10.4038 56.0208 9.66204 56.862 9.07691C58.6344 7.77041 61.1306 7.11719 64.3507 7.11719C67.3356 7.11719 69.7143 7.71278 71.4867 8.904C72.3723 9.50125 73.1098 10.2445 73.6558 11.09C74.2017 11.9356 74.5451 12.8663 74.6657 13.8274H68.5091C68.136 12.2263 66.7312 11.4257 64.2947 11.4257C63.3111 11.3785 62.3343 11.5914 61.4962 12.0357C61.1955 12.1982 60.9469 12.4226 60.7729 12.6885C60.5989 12.9544 60.5051 13.2534 60.5 13.5584C60.5 14.1972 60.9869 14.7064 61.972 15.0858C63.2365 15.5389 64.5484 15.8879 65.8898 16.1281C67.6509 16.4804 69.2684 16.8662 70.7423 17.2857C72.0874 17.6394 73.3037 18.2846 74.2739 19.159C75.1526 19.99 75.5947 21.1716 75.5947 22.7134C75.6442 23.9995 75.217 25.2659 74.3746 26.3303C73.461 27.4535 72.1932 28.3299 70.7199 28.8568C68.9335 29.5064 67.0066 29.8224 65.067 29.7839Z" fill="#212325"/>
<path d="M103.82 29.2594V7.64461H109.562L110.34 10.2912C111.136 9.3644 112.163 8.6014 113.346 8.05768C114.777 7.41348 116.375 7.09122 117.991 7.12104C121.887 7.12104 124.646 8.41473 126.269 11.0021C127.193 9.80204 128.461 8.82615 129.952 8.16818C131.504 7.46795 133.235 7.1082 134.989 7.12104C138.272 7.12104 140.796 7.96322 142.561 9.64757C144.326 11.3319 145.205 13.8024 145.197 17.059V29.2642H138.716V17.5826C138.716 15.7237 138.302 14.2972 137.468 13.3125C136.634 12.3278 135.364 11.8283 133.634 11.8283C132.827 11.8048 132.024 11.9421 131.289 12.2297C130.554 12.5172 129.906 12.947 129.397 13.4854C128.33 14.5901 127.797 16.1304 127.797 18.1062V29.2642H121.293V17.5826C121.293 15.7237 120.868 14.2972 120.023 13.3125C119.178 12.3278 117.874 11.8283 116.105 11.8283C115.305 11.8078 114.511 11.9468 113.785 12.2343C113.058 12.5219 112.419 12.9501 111.918 13.4854C110.851 14.5901 110.318 16.1304 110.318 18.1062V29.2642L103.82 29.2594Z" fill="#212325"/>
<path d="M159.704 29.7829C157.402 29.8108 155.133 29.3135 153.128 28.3419C151.195 27.3945 149.597 26.015 148.505 24.3504C147.347 22.543 146.767 20.5044 146.826 18.4423C146.776 16.3778 147.372 14.3396 148.55 12.5391C149.658 10.8769 151.264 9.49893 153.201 8.54756C155.205 7.57599 157.475 7.07872 159.777 7.10658C162.063 7.08225 164.315 7.57954 166.303 8.54756C168.236 9.49497 169.834 10.8744 170.926 12.5391C172.084 14.3449 172.663 16.3818 172.605 18.4423C172.664 20.5044 172.084 22.543 170.926 24.3504C169.829 26.0186 168.223 27.3986 166.281 28.3419C164.275 29.3116 162.006 29.8087 159.704 29.7829ZM159.704 24.946C160.533 24.9493 161.354 24.8055 162.114 24.5236C162.875 24.2418 163.56 23.8279 164.126 23.3081C165.376 22.2193 166.001 20.599 166.001 18.4471C166.001 16.3001 165.374 14.6766 164.126 13.591C163.568 13.0747 162.891 12.6627 162.139 12.3809C161.387 12.099 160.575 11.9534 159.755 11.9531C158.922 11.9459 158.097 12.0879 157.331 12.3699C156.566 12.652 155.878 13.0678 155.311 13.591C154.074 14.6766 153.458 16.3001 153.458 18.4471C153.458 20.5942 154.074 22.2177 155.311 23.3081C155.87 23.8284 156.55 24.2429 157.306 24.5249C158.063 24.8069 158.879 24.9504 159.704 24.946Z" fill="#212325"/>
<path d="M187.095 29.783C184.791 29.8107 182.52 29.3135 180.513 28.342C178.582 27.3939 176.987 26.0145 175.896 24.3504C174.738 22.5431 174.158 20.5045 174.217 18.4424C174.165 16.3776 174.76 14.3389 175.941 12.5391C177.049 10.877 178.655 9.49898 180.592 8.54762C182.596 7.5754 184.866 7.07808 187.168 7.10663C189.454 7.08299 191.706 7.58024 193.694 8.54762C195.627 9.49502 197.225 10.8745 198.317 12.5391C199.475 14.3449 200.054 16.3818 199.996 18.4424C200.055 20.5045 199.475 22.5431 198.317 24.3504C197.217 26.0182 195.609 27.398 193.666 28.342C191.662 29.311 189.395 29.8081 187.095 29.783ZM187.095 24.946C187.923 24.9487 188.743 24.8046 189.503 24.5227C190.262 24.2409 190.946 23.8274 191.511 23.3081C192.765 22.2194 193.392 20.5991 193.392 18.4472C193.392 16.3001 192.765 14.6766 191.511 13.5911C190.954 13.0749 190.279 12.6629 189.528 12.3811C188.776 12.0993 187.966 11.9535 187.146 11.9531C186.313 11.9457 185.488 12.0875 184.722 12.3696C183.957 12.6516 183.269 13.0677 182.702 13.5911C181.465 14.6766 180.844 16.3001 180.844 18.4472C180.844 20.5943 181.465 22.2178 182.702 23.3081C183.261 23.8285 183.941 24.2429 184.697 24.525C185.454 24.807 186.271 24.9504 187.095 24.946Z" fill="#212325"/>
<path d="M39.2482 29.7857C37.1193 29.8086 35.0128 29.4109 33.0916 28.6233C31.2562 27.8462 29.7323 26.617 28.7149 25.0929C27.6291 23.5126 27.0918 21.5193 27.0918 19.0984V7.64258H33.3547V19.1368C33.3547 21.2247 33.9386 22.7777 35.1065 23.796C35.6304 24.3158 36.2879 24.7239 37.027 24.9881C37.7662 25.2524 38.5668 25.3655 39.3657 25.3187C40.1599 25.361 40.9548 25.2456 41.6886 24.9816C42.4224 24.7175 43.0754 24.3118 43.5969 23.796C44.7835 22.7777 45.3768 21.2247 45.3768 19.1368V7.64258H51.6788V19.0984C51.6788 21.5001 51.1191 23.5126 49.9998 25.0929C48.9305 26.6228 47.3621 27.8502 45.4887 28.6233C43.5376 29.4105 41.404 29.8079 39.2482 29.7857Z" fill="#212325"/>
<path d="M100.333 7.63281H93.8291V29.2668H100.333V7.63281Z" fill="#212325"/>
<path d="M93.0176 1.62829C93.0292 2.02843 93.1343 2.42252 93.3266 2.78719C93.5188 3.15186 93.7944 3.47972 94.137 3.75137C94.9322 4.37156 95.9792 4.69923 97.0529 4.66397C98.1285 4.69999 99.1775 4.3723 99.9745 3.75137C100.342 3.45665 100.631 3.09813 100.824 2.69974C101.017 2.30135 101.109 1.87224 101.094 1.44099C101.095 0.938789 100.953 0.443948 100.68 0L93.0176 1.62829Z" fill="#14A892"/>
<path d="M83.6708 3.43359L77.1729 4.82656V21.7245C77.1729 24.5456 77.9676 26.507 79.5571 27.6085C81.1466 28.7101 83.2641 29.2625 85.9095 29.2657H90.3255V24.5152H87.18C85.8928 24.5152 84.9861 24.3183 84.46 23.9244C83.9339 23.5354 83.6708 22.8149 83.6708 21.7678V12.3101H90.3255V7.64608H83.6708V3.43359Z" fill="#212325"/>
</svg>
